PathFileType	4	(X/Y/Z)	OpenSim_Sub09_EMGStiffKnee_Accel.trc
DataRate	CameraRate	NumFrames	NumMarkers	Units	OrigDataRate	OrigDataStartFrame	OrigNumFrames
100	100	20	8	m	100	4741	7584
Frame#	Time	torso_imu_offset_imu	pelvis_imu_offset_imu	tibia_r_imu_offset_imu	femur_r_imu_offset_imu	tibia_l_imu_offset_imu	femur_l_imu_offset_imu	toes_r_imu_offset_imu	toes_l_imu_offset_imu
				X1	Y1	Z1	X2	Y2	Z2	X3	Y3	Z3	X4	Y4	Z4	X5	Y5	Z5	X6	Y6	Z6	X7	Y7	Z7	X8		Y8	Z8	

4741	47.40000000	7.55480993	1.62461779	7.24724191	8.42419363	-3.22117434	3.31773438	10.24835032	7.01478717	2.85600665	7.53213679	-4.21348690	3.46600362	9.77727167	-2.56421599	-0.83373818	9.68825929	-1.87375523	-1.14999493	10.58952729	-0.27188256	12.08763561	5.29211536	2.31808582	10.78170125
4742	47.41000000	7.78812129	1.56396453	7.25927270	8.67025772	-3.31295652	3.11500732	9.97474649	6.92394336	2.79215775	7.25332499	-4.39828762	3.12959911	9.85499602	-2.68515830	-0.77980008	9.66735554	-2.09492000	-1.53681116	10.59997815	-0.22216333	11.73544766	4.91890185	2.45220813	10.96095636
4743	47.42000000	7.88228171	1.62291089	7.19832187	8.85469415	-3.28138130	2.97961546	9.82224680	6.14315240	2.71411739	6.99910549	-4.14764814	2.72527979	9.85567458	-2.59399887	-0.64691389	9.59426139	-1.92777806	-1.88242941	9.91195662	-0.07337821	11.05321296	5.38423397	2.05099116	10.69075543
4744	47.43000000	7.99377807	1.62990820	7.24658467	9.03763772	-3.22790683	2.86435912	9.96508357	4.85470355	2.54142529	6.83693997	-3.70161109	2.45247929	9.65722218	-2.53290676	-0.50496117	9.39725227	-1.72108092	-2.04586258	10.11202421	-0.04642719	10.60549962	5.49489269	1.93703800	10.68356621
4745	47.44000000	8.12294158	1.56072901	7.25044273	9.12507434	-3.05484378	2.75021634	10.24002841	3.68036773	1.93160807	6.86404584	-3.22988777	2.36000605	9.54275514	-2.34960143	-0.34893311	9.37248440	-1.47620905	-2.07221966	10.69529466	-0.17144145	10.13037120	5.33685010	1.96600959	10.66757606
4746	47.45000000	8.25183451	1.43877758	7.23078307	9.18932341	-2.88344265	2.65001297	10.38729761	2.96504158	1.50955848	6.97142925	-2.79910428	2.48445218	9.71568134	-2.15905499	-0.39271225	9.54538738	-1.11421032	-2.12676561	10.76287212	-0.77996143	9.50973972	4.83616475	2.39559163	11.03546839
4747	47.46000000	8.37332565	1.33786544	7.13716090	9.18620498	-2.68289583	2.55608286	10.16214424	2.68173540	1.26618131	7.14774237	-2.56486179	2.76620829	10.15981319	-1.79076445	-0.19050809	9.89478026	-0.67911961	-2.13862814	11.17213658	-1.61540099	8.87119655	4.93196998	2.41025171	10.99849842
4748	47.47000000	8.50003550	1.26599980	7.18456740	9.12929322	-2.43933692	2.58045580	9.73934496	2.67706794	1.12390486	7.27122048	-2.49846298	3.08245349	10.48308920	-1.54449131	0.06047636	10.16899367	-0.24246410	-2.12050975	12.08427837	-2.31155739	8.15373868	5.23314502	2.14748646	10.97016986
4749	47.48000000	8.53812896	1.12475609	7.32220500	9.18166623	-2.19605063	2.58863876	9.13501652	2.74358574	1.28270093	7.33568616	-2.60937713	3.40527861	10.61634015	-1.61301278	0.17563108	10.34816957	0.27030355	-1.97555935	12.34153644	-2.83208432	7.33329522	5.30963890	1.89781045	11.04793650
4750	47.49000000	8.53267993	1.15406729	7.28638669	9.27243788	-2.09748829	2.50210596	8.56350932	2.59700158	1.06076045	7.43218504	-2.94794839	3.73110088	10.69831109	-1.89308237	0.67482035	10.45337678	0.67667907	-1.85308287	11.47800192	-2.69294400	6.36490647	4.82764128	1.99405306	11.26261222
4751	47.50000000	8.56944873	1.18163809	7.28655168	9.36053096	-1.98522545	2.52240763	8.14447921	2.54062461	0.94282423	7.63199247	-3.56743251	4.12173734	10.74411045	-1.90837979	0.83990175	10.37817551	0.90758731	-1.65338520	10.20949965	-2.36345246	5.20595145	4.73035121	1.81806696	11.39460105
4752	47.51000000	8.56286050	1.23034293	7.49509659	9.44119476	-1.88958401	2.51924497	7.84983250	2.51769175	1.11316566	8.00721247	-4.36089301	4.51936834	10.67832174	-1.62488480	1.18770576	10.25949359	1.01346293	-1.43246451	9.58105198	-2.10771062	4.77488649	5.01200362	1.36801242	11.37703402
4753	47.52000000	8.70193736	1.31461459	7.55669026	9.50944310	-1.91270804	2.47634290	7.59886519	2.64686868	1.30268910	8.41664113	-5.05716685	4.99066245	10.51448891	-1.55089093	1.34873559	10.14030795	0.99683015	-1.27799484	10.47292549	-1.76090120	4.38186824	5.16960752	1.06391814	11.39939047
4754	47.53000000	8.72484341	1.36045769	7.56217653	9.45618339	-2.01019334	2.47571912	7.12696664	2.78189869	1.38760231	8.69204338	-5.59730514	5.45895139	10.37235595	-1.32858399	1.16866000	10.08537622	0.93164366	-1.24335580	10.56193343	-1.46787593	3.49188475	4.86696414	1.66744405	11.49746557
4755	47.54000000	8.74578714	1.40593852	7.58284765	9.34411826	-2.13582263	2.47741849	6.47630245	2.81178616	1.44178818	8.89252845	-5.92289125	5.68809536	10.64085415	-1.04742280	1.69812691	10.19376981	0.77657097	-1.24163952	10.53039195	-1.28903679	2.58022232	4.66951415	1.55878078	11.79357300
4756	47.55000000	8.77774691	1.48147931	7.66564041	9.24043285	-2.31391727	2.42599657	5.86216653	2.65825921	1.43537204	8.84670336	-5.92277396	5.60537660	10.69964363	-0.48836426	1.30483713	10.58469152	0.68748651	-1.31472827	11.42652987	-0.75457717	1.84762342	4.85776564	1.76007149	11.80861388
4757	47.56000000	8.84774303	1.55657010	7.62171647	9.23953301	-2.44060869	2.23819555	5.70844130	2.41441236	0.91187746	8.84229191	-5.99951856	5.48587859	11.24446890	-0.54623923	1.14337007	10.96667556	0.67815637	-1.68837113	11.90987661	-0.14143186	0.84769406	5.12706829	1.12891792	11.67967061
4758	47.57000000	8.92584077	1.58432903	7.51247548	9.34819571	-2.59636267	2.07007653	6.01197816	2.16587150	0.45768197	8.68206171	-6.12958507	5.24030783	11.44852251	-1.32091896	1.20106039	10.91674566	0.76783797	-2.11024072	11.99535076	0.08689111	0.06266874	5.22015565	1.34194813	11.53096216
4759	47.58000000	8.90734385	1.60163341	7.41403029	9.44239222	-2.70414071	1.95820286	6.45952965	1.70337779	0.31161932	8.39870737	-6.46159704	5.04704916	10.83551262	-1.88711793	0.89057643	10.68307091	0.89959265	-2.52887591	12.65610740	0.47708818	-0.57552563	4.87517239	1.35381258	11.73031787
4760	47.59000000	8.94546429	1.69098422	7.40740346	9.41759776	-2.75974929	1.72774341	6.73092814	0.89752908	0.12676111	7.97928541	-6.46440914	4.76479267	10.75881325	-1.89802594	0.47745529	10.30038914	1.00169113	-2.76538446	13.17360096	0.15323588	-1.28646238	5.04655127	1.50756101	11.59104586
